<svg id="visual" viewBox="0 0 900 600" width="900" height="600" xmlns="http://www.w3.org/2000/svg" xmlns:xlink="http://www.w3.org/1999/xlink" version="1.1"><rect x="0" y="0" width="900" height="600" fill="none"></rect><defs><linearGradient id="grad1_0" x1="33.3%" y1="0%" x2="100%" y2="100%"><stop offset="20%" stop-color="#none" stop-opacity="1"></stop><stop offset="80%" stop-color="#none" stop-opacity="1"></stop></linearGradient></defs><defs><linearGradient id="grad2_0" x1="0%" y1="0%" x2="66.7%" y2="100%"><stop offset="20%" stop-color="#none" stop-opacity="1"></stop><stop offset="80%" stop-color="#none" stop-opacity="1"></stop></linearGradient></defs><g transform="translate(900, 0)"><path d="M0 400C-53.4 394.9 -106.9 389.7 -153.1 369.6C-199.3 349.4 -238.3 314.1 -277.2 277.2C-316.1 240.3 -355 201.7 -374.7 155.2C-394.5 108.8 -395.3 54.4 -396 0L0 0Z" fill="#ece6f8"></path></g><g transform="translate(0, 600)"><path d="M0 -398C55.8 -392.8 111.5 -387.6 148.9 -359.4C186.2 -331.1 205.2 -279.8 245.4 -245.4C285.5 -210.9 346.9 -193.3 374.7 -155.2C402.6 -117.1 396.8 -58.6 391 0L0 0Z" fill="#ffe7e3"></path></g></svg>